<?xml version="1.0" standalone="no"?>
<!DOCTYPE svg PUBLIC "-//W3C//DTD SVG 20010904//EN"
 "http://www.w3.org/TR/2001/REC-SVG-20010904/DTD/svg10.dtd">
<svg version="1.0" xmlns="http://www.w3.org/2000/svg"
 width="480.000000pt" height="480.000000pt" viewBox="0 0 480.000000 480.000000"
 preserveAspectRatio="xMidYMid meet">
<metadata>
Created by potrace 1.11, written by Peter Selinger 2001-2013
</metadata>
<g transform="translate(0.000000,480.000000) scale(0.100000,-0.100000)"
fill="#000000" stroke="none">
<path d="M2238 4665 c-2 -2 -32 -6 -68 -10 -123 -13 -188 -24 -305 -51 -11 -3
-24 -6 -30 -7 -5 -2 -16 -6 -22 -10 -7 -5 -13 -6 -13 -3 0 3 -16 -2 -35 -10
-19 -8 -35 -12 -35 -9 0 3 -13 -1 -30 -10 -16 -9 -30 -13 -30 -11 0 9 -198
-75 -282 -119 -21 -11 -63 -33 -95 -50 -32 -16 -65 -37 -74 -45 -9 -8 -36 -26
-59 -40 -24 -14 -48 -30 -54 -35 -6 -6 -27 -22 -46 -35 -19 -13 -40 -29 -46
-35 -7 -5 -31 -26 -55 -45 -97 -78 -272 -263 -344 -364 -11 -16 -25 -33 -30
-40 -6 -6 -25 -33 -42 -61 -18 -27 -36 -55 -41 -60 -5 -6 -23 -37 -41 -70 -18
-33 -38 -66 -43 -72 -6 -7 -7 -13 -3 -13 5 0 1 -8 -7 -17 -26 -30 -140 -314
-154 -382 -3 -13 -9 -32 -15 -43 -5 -10 -8 -18 -5 -18 2 0 0 -16 -6 -36 -15
-56 -25 -104 -34 -159 -14 -89 -22 -168 -28 -276 -2 -31 -6 -61 -10 -67 -3 -6
-2 -13 4 -17 6 -4 8 -10 6 -14 -7 -10 -8 -85 -2 -146 6 -70 16 -156 21 -185 2
-14 7 -41 10 -60 5 -32 41 -191 48 -215 2 -5 9 -30 16 -55 6 -25 16 -54 21
-65 10 -24 23 -58 24 -65 4 -16 51 -127 58 -134 4 -6 8 -18 8 -28 0 -10 5 -18
10 -18 6 0 10 -9 10 -19 0 -11 3 -21 8 -23 4 -1 18 -25 32 -53 38 -78 97 -171
174 -275 81 -109 110 -143 221 -254 68 -69 107 -103 212 -191 7 -5 19 -16 27
-22 8 -7 19 -13 24 -13 5 0 17 -9 27 -20 10 -11 24 -20 32 -20 7 0 13 -4 13
-8 0 -5 10 -14 22 -21 13 -6 46 -25 73 -41 114 -69 387 -195 440 -204 6 -1 16
-5 23 -9 6 -5 12 -6 12 -2 0 3 16 -1 35 -9 19 -8 35 -13 35 -10 0 3 8 0 18 -5
9 -5 31 -12 47 -15 17 -3 50 -10 75 -16 25 -5 65 -12 90 -15 25 -3 56 -8 70
-11 65 -12 158 -18 300 -18 128 0 275 8 275 14 0 1 18 3 40 5 51 5 93 12 175
32 36 8 72 16 80 18 8 1 22 5 30 7 8 3 53 18 100 33 173 55 387 157 517 246
23 16 46 29 51 29 6 0 12 3 14 8 2 4 37 33 78 64 80 61 110 87 205 177 68 65
160 168 212 237 12 16 37 50 57 77 20 26 33 47 28 47 -4 0 -2 4 5 8 30 19 213
367 213 405 0 7 4 17 9 23 7 7 38 91 46 124 1 3 4 12 8 20 17 43 75 283 83
345 14 104 17 165 17 280 -2 143 -10 296 -19 335 -3 14 -7 39 -9 55 -2 17 -6
44 -9 60 -3 17 -9 49 -12 73 -4 23 -10 42 -13 42 -4 0 -8 12 -9 28 -2 24 -32
131 -49 172 -3 8 -8 24 -10 34 -2 11 -8 25 -14 33 -6 7 -9 13 -5 13 4 0 -1 15
-11 33 -9 17 -18 37 -19 42 -5 28 -114 236 -129 247 -5 4 -7 8 -3 8 5 0 -12
30 -37 66 -25 36 -45 67 -45 70 0 4 -84 116 -105 140 -5 6 -30 35 -55 64 -69
82 -181 190 -280 270 -24 19 -49 41 -56 48 -7 6 -15 12 -18 12 -3 0 -29 18
-58 40 -29 22 -58 40 -65 40 -6 0 -13 3 -15 8 -7 17 -288 169 -288 156 0 -2
-10 2 -23 11 -23 15 -208 84 -237 89 -8 1 -22 5 -30 9 -8 3 -26 9 -40 12 -14
2 -65 14 -113 24 -49 11 -116 23 -150 26 -34 4 -71 9 -82 12 -21 5 -392 12
-397 8z"/>
</g>
</svg>
